<svg id="Layer_1" data-name="Layer 1" xmlns="http://www.w3.org/2000/svg" xmlns:xlink="http://www.w3.org/1999/xlink" viewBox="0 0 16 16"><defs><linearGradient id="linear-gradient" x1="1.45" y1="8.99" x2="11.12" y2="8.99" gradientUnits="userSpaceOnUse"><stop offset="0" stop-color="#ea4235"/><stop offset="1" stop-color="#fcbc05"/><stop offset="1"/></linearGradient><linearGradient id="linear-gradient-2" x1="9.34" y1="6.93" x2="14.06" y2="6.93" xlink:href="#linear-gradient"/><linearGradient id="linear-gradient-3" x1="4.58" y1="4" x2="9.77" y2="4" xlink:href="#linear-gradient"/></defs><title>Artboard 2</title><path d="M8.58,14.07a6.5,6.5,0,0,0,1.1-.23h0a3,3,0,0,0,.64-.35,2,2,0,0,0,.79-1.67,2.57,2.57,0,0,0-.29-1.29,2.76,2.76,0,0,0-1-.93,11.85,11.85,0,0,0-2.11-.92A16.25,16.25,0,0,1,4.85,7.22h0a4.55,4.55,0,0,1-1-.84A3.86,3.86,0,0,1,2.93,4a.12.12,0,0,0-.21-.07A6.42,6.42,0,0,0,1.45,7.75a6.3,6.3,0,0,0,3.91,5.87h0a7.14,7.14,0,0,0,2.77.46Z" style="fill:url(#linear-gradient)"/><path d="M12.13,3.34a.6.6,0,0,0-1,.31,5,5,0,0,1-.16.61A6.76,6.76,0,0,1,9.49,6.78h0a.59.59,0,0,0,.18.91,7.07,7.07,0,0,1,1.16.73l0,0a4.43,4.43,0,0,1,1,.83,3.37,3.37,0,0,1,.62,1,.6.6,0,0,0,1.11,0,6.43,6.43,0,0,0,.47-2.41A6.33,6.33,0,0,0,12.13,3.34Z" style="fill:url(#linear-gradient-2)"/><path d="M8.46,1.62a9.08,9.08,0,0,0-.91-.05,3.51,3.51,0,0,0-2.18.6,2,2,0,0,0-.79,1.67,2.57,2.57,0,0,0,.29,1.29,2.68,2.68,0,0,0,1,.93l.27.15a1.86,1.86,0,0,0,2.24-.38h0a6.3,6.3,0,0,0,1.27-2.1,1.89,1.89,0,0,0,0-1.28,1.27,1.27,0,0,0-.75-.72,1.74,1.74,0,0,0-.29-.07H8.56" style="fill:url(#linear-gradient-3)"/></svg>