<svg id="Layer_1" data-name="Layer 1" xmlns="http://www.w3.org/2000/svg" xmlns:xlink="http://www.w3.org/1999/xlink" viewBox="0 0 150 32.89"><defs><linearGradient id="linear-gradient" x1="1" y1="20.18" x2="24.09" y2="20.18" gradientUnits="userSpaceOnUse"><stop offset="0" stop-color="#ea4235"/><stop offset="1" stop-color="#fcbc05"/><stop offset="1"/></linearGradient><linearGradient id="linear-gradient-2" x1="19.86" y1="14.08" x2="31.13" y2="14.08" xlink:href="#linear-gradient"/><linearGradient id="linear-gradient-3" x1="8.47" y1="7.07" x2="20.88" y2="7.07" xlink:href="#linear-gradient"/></defs><title>logo</title><text transform="translate(37.2 24.74)" style="font-size:28.872764587402344px;fill:#ea4235;font-family:OpenSans-Semibold, Open Sans;font-weight:600">Sun<tspan x="52.53" y="0" style="fill:#fcbc05">plux</tspan></text><path d="M18,32.32a14.17,14.17,0,0,0,2.62-.55h0a6.35,6.35,0,0,0,1.52-.83,4.75,4.75,0,0,0,1.88-4,6.11,6.11,0,0,0-.69-3.08,6.6,6.6,0,0,0-2.34-2.21,29,29,0,0,0-5-2.22A38.09,38.09,0,0,1,9.12,16h0a11.66,11.66,0,0,1-2.42-2A9.11,9.11,0,0,1,4.54,8.25.28.28,0,0,0,4,8.1a15.22,15.22,0,0,0,6.3,23.15h0A16.62,16.62,0,0,0,17,32.36C17.35,32.36,17.7,32.35,18,32.32Z" transform="translate(-1 -0.37)" style="fill:url(#linear-gradient)"/><path d="M26.51,5.49a1.42,1.42,0,0,0-2.39.75,12.46,12.46,0,0,1-.38,1.45,16.43,16.43,0,0,1-3.53,6h0a1.43,1.43,0,0,0,.44,2.19,16.83,16.83,0,0,1,2.77,1.73l.11.08a11.43,11.43,0,0,1,2.37,2,8.12,8.12,0,0,1,1.47,2.45,1.43,1.43,0,0,0,2.65,0,15.26,15.26,0,0,0-3.49-16.7Z" transform="translate(-1 -0.37)" style="fill:url(#linear-gradient-2)"/><path d="M17.75,1.4a17.67,17.67,0,0,0-2.17-.13,8.44,8.44,0,0,0-5.23,1.44,4.75,4.75,0,0,0-1.88,4,6.13,6.13,0,0,0,.69,3.08A6.42,6.42,0,0,0,11.5,12c.2.12.42.25.65.37a4.42,4.42,0,0,0,5.35-.92l0,0h0a14.4,14.4,0,0,0,3-5,4.57,4.57,0,0,0,.1-3.06,2.91,2.91,0,0,0-1.79-1.72,4,4,0,0,0-.7-.18l-.2,0" transform="translate(-1 -0.37)" style="fill:url(#linear-gradient-3)"/></svg>